<svg id="Add-Toilet" xmlns="http://www.w3.org/2000/svg" width="48" height="32" viewBox="0 0 48 32">
  <rect id="Frame" width="48" height="32" fill="#fff" opacity="0"/>
  <path id="Path_35" data-name="Path 35" d="M-5.259.244,5.718-10.732,3.843-12.617-7.144-1.641-8.1.654a.352.352,0,0,0,.093.391.34.34,0,0,0,.386.1ZM6.655-11.65,7.71-12.7a1.263,1.263,0,0,0,.41-.811,1.051,1.051,0,0,0-.332-.781l-.381-.381A.987.987,0,0,0,6.626-15a1.3,1.3,0,0,0-.811.41L4.761-13.545Z" transform="translate(24.125 23.002)" fill="rgba(51,51,51,0.8)"/>
</svg>
