<svg id="Back" xmlns="http://www.w3.org/2000/svg" width="44" height="44" viewBox="0 0 44 44">
  <rect id="Rectangle_8" data-name="Rectangle 8" width="44" height="44" fill="none"/>
  <path id="Chevron" d="M1.332-7.756a1.287,1.287,0,0,0,.1.516,1.463,1.463,0,0,0,.317.451L10.119,1.4A1.2,1.2,0,0,0,11,1.762a1.242,1.242,0,0,0,.639-.167,1.282,1.282,0,0,0,.457-.451,1.193,1.193,0,0,0,.172-.628,1.255,1.255,0,0,0-.4-.913L4.329-7.756l7.541-7.358a1.244,1.244,0,0,0,.4-.9,1.185,1.185,0,0,0-.172-.634,1.3,1.3,0,0,0-.457-.446A1.242,1.242,0,0,0,11-17.263a1.219,1.219,0,0,0-.881.354L1.751-8.723a1.463,1.463,0,0,0-.317.451A1.287,1.287,0,0,0,1.332-7.756Z" transform="translate(15.2 29.75)" fill="#333"/>
</svg>
