<svg id="Circle-Question" xmlns="http://www.w3.org/2000/svg" width="80" height="79.961" viewBox="0 0 80 79.961">
  <ellipse id="Ellipse_15" data-name="Ellipse 15" cx="38.91" cy="38.896" rx="38.91" ry="38.896" transform="translate(1 1)" fill="#fff"/>
  <path id="Path_55" data-name="Path 55" d="M29.888,62.823a38.637,38.637,0,0,0,15.443-3.116A40.6,40.6,0,0,0,58.1,51.057a40.868,40.868,0,0,0,8.67-12.772,38.431,38.431,0,0,0,3.135-15.443A38.431,38.431,0,0,0,66.772,7.4,40.635,40.635,0,0,0,58.1-5.353,41.031,41.031,0,0,0,45.331-14a38.527,38.527,0,0,0-15.481-3.135A38.3,38.3,0,0,0,14.426-14,40.982,40.982,0,0,0-6.958,7.4a38.431,38.431,0,0,0-3.135,15.443A38.431,38.431,0,0,0-6.958,38.285a41.031,41.031,0,0,0,8.65,12.772,40.365,40.365,0,0,0,12.753,8.65A38.637,38.637,0,0,0,29.888,62.823Zm-.851-31.93q-3.87,0-3.87-3.483v-.426a6.883,6.883,0,0,1,1.413-4.509,18.012,18.012,0,0,1,3.541-3.232,33.66,33.66,0,0,0,3.832-3,4.165,4.165,0,0,0,1.277-3.154A4.153,4.153,0,0,0,33.72,9.76,5.844,5.844,0,0,0,29.81,8.483a6.1,6.1,0,0,0-4.1,1.509,9.232,9.232,0,0,0-1.587,1.819l-.581.851a4.944,4.944,0,0,1-1.393,1.219,3.75,3.75,0,0,1-1.9.445,3.317,3.317,0,0,1-2.225-.851,2.863,2.863,0,0,1-.987-2.284,5.159,5.159,0,0,1,.116-1.084q.116-.542.271-1.045A9.5,9.5,0,0,1,21.76,4.187a16.333,16.333,0,0,1,8.553-2.013,16.983,16.983,0,0,1,6.58,1.239,11.694,11.694,0,0,1,4.819,3.58A8.961,8.961,0,0,1,43.55,12.7a8.231,8.231,0,0,1-1.8,5.593,21.75,21.75,0,0,1-4.78,3.967A15.165,15.165,0,0,0,33.952,24.7a4.484,4.484,0,0,0-1.161,2.748v.464a2.922,2.922,0,0,1-1.084,2.129A4,4,0,0,1,29.036,30.892ZM28.959,43.2a4.8,4.8,0,0,1-3.328-1.258,4.071,4.071,0,0,1-1.393-3.154,4.157,4.157,0,0,1,1.374-3.174,5.026,5.026,0,0,1,6.7,0,4.157,4.157,0,0,1,1.374,3.174,4.071,4.071,0,0,1-1.393,3.154A4.8,4.8,0,0,1,28.959,43.2Z" transform="translate(10.093 17.139)" fill="#589fd2"/>
</svg>
