<svg id="Close" xmlns="http://www.w3.org/2000/svg" width="44" height="44" viewBox="0 0 44 44">
  <rect id="Rectangle_54" data-name="Rectangle 54" width="44" height="44" fill="none" opacity="0"/>
  <path id="Path_41" data-name="Path 41" d="M0,3.262a9.964,9.964,0,0,0,3.994-.806A10.48,10.48,0,0,0,7.275.229,10.549,10.549,0,0,0,9.507-3.057a9.912,9.912,0,0,0,.811-3.994,9.888,9.888,0,0,0-.811-3.984,10.609,10.609,0,0,0-2.231-3.291,10.424,10.424,0,0,0-3.291-2.231A9.974,9.974,0,0,0,0-17.363a9.974,9.974,0,0,0-3.989.806,10.424,10.424,0,0,0-3.291,2.231,10.539,10.539,0,0,0-2.227,3.291,9.94,9.94,0,0,0-.806,3.984,9.964,9.964,0,0,0,.806,3.994A10.44,10.44,0,0,0-7.28.229,10.539,10.539,0,0,0-3.989,2.456,9.94,9.94,0,0,0,0,3.262ZM-3.071-2.861a1.067,1.067,0,0,1-.791-.327,1.092,1.092,0,0,1-.322-.8,1.037,1.037,0,0,1,.332-.771l2.275-2.285L-3.853-9.307a1.069,1.069,0,0,1-.332-.781,1.071,1.071,0,0,1,.322-.8,1.084,1.084,0,0,1,.791-.317,1.132,1.132,0,0,1,.82.322L.015-8.623,2.29-10.889a1.1,1.1,0,0,1,.811-.322,1.075,1.075,0,0,1,.791.322,1.075,1.075,0,0,1,.322.791,1.069,1.069,0,0,1-.332.781L1.606-7.041,3.872-4.766a1.015,1.015,0,0,1,.342.781,1.092,1.092,0,0,1-.322.8,1.079,1.079,0,0,1-.8.327,1.094,1.094,0,0,1-.82-.332L.015-5.439-2.231-3.193A1.138,1.138,0,0,1-3.071-2.861Z" transform="translate(22 29.051)" fill="rgba(51,51,51,0.8)"/>
</svg>
