<svg id="Direction" xmlns="http://www.w3.org/2000/svg" width="16" height="16" viewBox="0 0 16 16">
  <rect id="Rectangle_59" data-name="Rectangle 59" width="16" height="16" fill="none" opacity="0"/>
  <path id="Path_47" data-name="Path 47" d="M9.744-1.146a7.727,7.727,0,0,0,3.089-.623A8.119,8.119,0,0,0,15.387-3.5a8.173,8.173,0,0,0,1.734-2.554,7.686,7.686,0,0,0,.627-3.089,7.686,7.686,0,0,0-.627-3.089,8.127,8.127,0,0,0-1.734-2.551,8.206,8.206,0,0,0-2.554-1.73,7.705,7.705,0,0,0-3.1-.627,7.659,7.659,0,0,0-3.085.627,8.172,8.172,0,0,0-2.547,1.73,8.159,8.159,0,0,0-1.73,2.551,7.686,7.686,0,0,0-.627,3.089,7.686,7.686,0,0,0,.627,3.089A8.206,8.206,0,0,0,4.105-3.5,8.073,8.073,0,0,0,6.656-1.77,7.727,7.727,0,0,0,9.744-1.146ZM5.51-8.492a.6.6,0,0,1-.522-.217.553.553,0,0,1-.1-.476.594.594,0,0,1,.364-.4l7.284-3.437a.73.73,0,0,1,.6-.046.654.654,0,0,1,.383.379.741.741,0,0,1-.046.6L10.077-4.8a.616.616,0,0,1-.41.372.55.55,0,0,1-.476-.1.619.619,0,0,1-.213-.53V-8.221a.236.236,0,0,0-.263-.271Z" transform="translate(-1.748 17.146)" fill="#589fd2"/>
</svg>
