<svg id="Edit" xmlns="http://www.w3.org/2000/svg" width="44.396" height="44.8" viewBox="0 0 44.396 44.8">
  <rect id="Rectangle_49" data-name="Rectangle 49" width="44.396" height="44.8" fill="#fff" opacity="0"/>
  <path id="Path_40" data-name="Path 40" d="M6.873-1.7,9.782-2.909a1.083,1.083,0,0,0,.268-.136,2.6,2.6,0,0,0,.215-.18l8.473-8.42a1.894,1.894,0,0,0,.633-1.349,1.911,1.911,0,0,0-.642-1.358l-1.9-1.916a1.959,1.959,0,0,0-1.358-.642,1.86,1.86,0,0,0-1.349.624L5.643-7.866a1.537,1.537,0,0,0-.176.207,1.589,1.589,0,0,0-.141.259L4.087-4.491a1.362,1.362,0,0,0-.105.7,1.045,1.045,0,0,0,.316.615L5.563-1.907a1.074,1.074,0,0,0,.606.316A1.251,1.251,0,0,0,6.873-1.7ZM6.706-3.234a.532.532,0,0,1-.224.035.334.334,0,0,1-.207-.123l-.554-.554A.334.334,0,0,1,5.6-4.083a.532.532,0,0,1,.035-.224L6.706-6.8,15.1-15.144a.585.585,0,0,1,.365-.167.467.467,0,0,1,.356.158l1.793,1.811a.455.455,0,0,1-.026.721L9.2-4.289Zm-3.419,2H4.43a.91.91,0,0,0,.316-.044A.978.978,0,0,0,5-1.433l.879-.686L4.526-3.489,3.006-1.9a.4.4,0,0,0-.119.439A.375.375,0,0,0,3.287-1.23ZM5.73-6.847l3.7,3.718.94-.94-3.7-3.718Zm7.33-7.277,3.7,3.718.949-.932L14-15.056ZM3.006,1.89H19.863a.737.737,0,0,0,.545-.233.759.759,0,0,0,0-1.085.744.744,0,0,0-.545-.229H3.006a.73.73,0,0,0-.541.229.751.751,0,0,0-.224.545.756.756,0,0,0,.224.541A.723.723,0,0,0,3.006,1.89Z" transform="translate(10.759 29.91)" fill="rgba(51,51,51,0.6)"/>
</svg>
