<svg id="Error" xmlns="http://www.w3.org/2000/svg" width="20.186" height="20.176" viewBox="0 0 20.186 20.176">
  <rect id="Rectangle_67" data-name="Rectangle 67" width="20" height="20" rx="10" fill="#fff"/>
  <path id="Path_49" data-name="Path 49" d="M0,3.037a9.749,9.749,0,0,0,3.9-.786A10.243,10.243,0,0,0,7.114.068,10.312,10.312,0,0,0,9.3-3.154a9.7,9.7,0,0,0,.791-3.9,9.7,9.7,0,0,0-.791-3.9,10.253,10.253,0,0,0-2.187-3.218,10.353,10.353,0,0,0-3.223-2.183,9.721,9.721,0,0,0-3.906-.791,9.662,9.662,0,0,0-3.892.791,10.31,10.31,0,0,0-3.213,2.183A10.294,10.294,0,0,0-9.3-10.947a9.7,9.7,0,0,0-.791,3.9,9.7,9.7,0,0,0,.791,3.9A10.353,10.353,0,0,0-7.119.068,10.185,10.185,0,0,0-3.9,2.251,9.749,9.749,0,0,0,0,3.037ZM0-5.361a.819.819,0,0,1-.918-.9l-.137-4.922a.916.916,0,0,1,.273-.728A1.053,1.053,0,0,1,0-12.2a1.074,1.074,0,0,1,.771.288.914.914,0,0,1,.283.737L.894-6.27Q.874-5.361,0-5.361ZM0-2A1.239,1.239,0,0,1-.84-2.314a1.017,1.017,0,0,1-.356-.8,1.042,1.042,0,0,1,.352-.8A1.213,1.213,0,0,1,0-4.238a1.2,1.2,0,0,1,.84.322,1.042,1.042,0,0,1,.352.8,1.023,1.023,0,0,1-.352.8A1.221,1.221,0,0,1,0-2Z" transform="translate(10.093 17.139)" fill="#e60000"/>
</svg>
