<svg id="Find-Location" xmlns="http://www.w3.org/2000/svg" width="44" height="44" viewBox="0 0 44 44">
  <rect id="Rectangle_73" data-name="Rectangle 73" width="44" height="44" fill="none"/>
  <path id="Path_68" data-name="Path 68" d="M-12403-8503a10,10,0,0,1-10-10,10,10,0,0,1,10-10,10,10,0,0,1,10,10,10,10,0,0,1-10,10Zm1-5v2.938a8.006,8.006,0,0,0,6.939-6.937H-12398a1,1,0,0,1-1-1,1,1,0,0,1,1-1h2.937a8.013,8.013,0,0,0-6.937-6.937V-8518a1,1,0,0,1-1,1,1,1,0,0,1-1-1v-2.939a8.008,8.008,0,0,0-6.938,6.939h2.938a1,1,0,0,1,1,1,1,1,0,0,1-1,1h-2.938a8,8,0,0,0,6.938,6.938V-8508a1,1,0,0,1,1-1A1,1,0,0,1-12402-8508Zm-3-5a2,2,0,0,1,2-2,2,2,0,0,1,2,2,2,2,0,0,1-2,2A2,2,0,0,1-12405-8513Z" transform="translate(12425 8535)" fill="#589fd2"/>
</svg>
