<svg id="List" xmlns="http://www.w3.org/2000/svg" width="48" height="32" viewBox="0 0 48 32">
  <rect id="Frame" width="48" height="32" fill="#fff" opacity="0"/>
  <path id="Path_34" data-name="Path 34" d="M-4.126-12.109H9.136a.921.921,0,0,0,.664-.264.884.884,0,0,0,.273-.664A.888.888,0,0,0,9.8-13.7a.912.912,0,0,0-.664-.269H-4.126a.9.9,0,0,0-.659.269.9.9,0,0,0-.269.659.9.9,0,0,0,.269.659A.9.9,0,0,0-4.126-12.109Zm0,6H9.136A.912.912,0,0,0,9.8-6.382a.888.888,0,0,0,.273-.659A.888.888,0,0,0,9.8-7.7a.912.912,0,0,0-.664-.269H-4.126a.9.9,0,0,0-.659.269.9.9,0,0,0-.269.659.9.9,0,0,0,.269.659A.9.9,0,0,0-4.126-6.113Zm0,6H9.136A.921.921,0,0,0,9.8-.381a.872.872,0,0,0,.273-.654A.9.9,0,0,0,9.8-1.7a.9.9,0,0,0-.664-.273H-4.126a.9.9,0,0,0-.659.269.908.908,0,0,0-.269.669.88.88,0,0,0,.269.654A.9.9,0,0,0-4.126-.117ZM-8.7-11.66a1.334,1.334,0,0,0,.972-.4,1.321,1.321,0,0,0,.405-.977,1.321,1.321,0,0,0-.405-.977,1.334,1.334,0,0,0-.972-.4,1.334,1.334,0,0,0-.972.4,1.321,1.321,0,0,0-.405.977,1.321,1.321,0,0,0,.405.977A1.334,1.334,0,0,0-8.7-11.66Zm0,6a1.325,1.325,0,0,0,.972-.405,1.325,1.325,0,0,0,.405-.972,1.325,1.325,0,0,0-.405-.972A1.325,1.325,0,0,0-8.7-8.418a1.325,1.325,0,0,0-.972.405,1.325,1.325,0,0,0-.405.972,1.325,1.325,0,0,0,.405.972A1.325,1.325,0,0,0-8.7-5.664Zm0,6a1.334,1.334,0,0,0,.972-.4,1.309,1.309,0,0,0,.405-.967,1.321,1.321,0,0,0-.405-.977,1.334,1.334,0,0,0-.972-.4,1.334,1.334,0,0,0-.972.4,1.321,1.321,0,0,0-.405.977,1.309,1.309,0,0,0,.405.967A1.334,1.334,0,0,0-8.7.332Z" transform="translate(24.073 23.414)" fill="rgba(51,51,51,0.8)"/>
</svg>
