<svg id="Map" xmlns="http://www.w3.org/2000/svg" width="48" height="32" viewBox="0 0 48 32">
  <path id="Frame" d="M0,0H48V32H0Z" fill="none" opacity="0.42"/>
  <path id="Path_32" data-name="Path 32" d="M-7.884,4.592a1.515,1.515,0,0,0,.481-.08,2.86,2.86,0,0,0,.532-.251l4.9-2.638L3.369,4.6a2.562,2.562,0,0,0,1.274.351,2.333,2.333,0,0,0,1.194-.321L10.842,1.8a1.954,1.954,0,0,0,.752-.707,1.919,1.919,0,0,0,.241-.978v-13.47a1.335,1.335,0,0,0-.356-.988,1.335,1.335,0,0,0-.988-.356,1.363,1.363,0,0,0-.481.09,4.617,4.617,0,0,0-.542.251L4.382-11.536l-5.276-3.19a2.333,2.333,0,0,0-1.194-.321,2.282,2.282,0,0,0-1.174.311l-4.985,2.828a1.914,1.914,0,0,0-.742.692,1.912,1.912,0,0,0-.241.983V3.258a1.318,1.318,0,0,0,.356.983A1.346,1.346,0,0,0-7.884,4.592ZM-2.859-.162-7.012,2.125a.4.4,0,0,1-.181.06q-.171,0-.171-.221V-9.721a.728.728,0,0,1,.08-.356A.683.683,0,0,1-7-10.333l3.811-2.217q.09-.04.171-.085t.16-.1Zm1.9.06V-12.489q.08.04.155.085l.155.1L3.57-9.771V2.436q-.1-.06-.206-.11t-.206-.11ZM5.466,2.586V-9.942l4.142-2.267a.455.455,0,0,1,.16-.05.193.193,0,0,1,.15.055.223.223,0,0,1,.05.155V-.413a.693.693,0,0,1-.085.356A.722.722,0,0,1,9.6.2L5.917,2.335q-.11.07-.226.13Z" transform="translate(22.229 21.047)" fill="rgba(51,51,51,0.8)"/>
</svg>
