<svg id="Map" xmlns="http://www.w3.org/2000/svg" width="48" height="32" viewBox="0 0 48 32">
  <path id="Frame" d="M0,0H48V32H0Z" fill="none" opacity="0"/>
  <path id="Path_33" data-name="Path 33" d="M-10.283,1.75a1.3,1.3,0,0,0,.374,1,1.368,1.368,0,0,0,.972.349A2,2,0,0,0-8,2.823L-3.947.637V-16.519q-.172.061-.364.147a3.066,3.066,0,0,0-.385.207l-4.6,2.621a1.946,1.946,0,0,0-.749.693,1.882,1.882,0,0,0-.243.977ZM-2.469.374,2.379,3.086q.182.091.339.162a1.737,1.737,0,0,0,.339.111V-13.422L-1.67-16.286q-.213-.121-.415-.213a2.71,2.71,0,0,0-.385-.142Zm7,2.935a1.059,1.059,0,0,0,.172-.061q.091-.04.172-.081L10.02.262a1.972,1.972,0,0,0,.769-.709,1.93,1.93,0,0,0,.243-.992V-14.991A1.3,1.3,0,0,0,10.653-16a1.472,1.472,0,0,0-1.027-.344,2.049,2.049,0,0,0-.992.294l-4.1,2.277Z" transform="translate(23.283 22.641)" fill="#589fd2"/>
</svg>
