<svg id="Sm" xmlns="http://www.w3.org/2000/svg" width="4.971" height="8.647" viewBox="0 0 4.971 8.647">
  <path id="Icon_See-More_Sm" data-name="Icon / See-More /Sm" d="M6.86-3.525a.56.56,0,0,0-.049-.234.7.7,0,0,0-.146-.205l-3.8-3.721a.544.544,0,0,0-.4-.161.569.569,0,0,0-.288.076.564.564,0,0,0-.208.2.552.552,0,0,0-.076.288.573.573,0,0,0,.176.41L5.493-3.525,2.065-.181A.578.578,0,0,0,1.89.234a.558.558,0,0,0,.283.491A.569.569,0,0,0,2.461.8a.535.535,0,0,0,.4-.166l3.8-3.721a.7.7,0,0,0,.146-.205A.56.56,0,0,0,6.86-3.525Z" transform="translate(-1.89 7.847)" fill="#589fd2"/>
</svg>
