<svg id="Back" xmlns="http://www.w3.org/2000/svg" width="44" height="44" viewBox="0 0 44 44">
  <rect id="Rectangle_8" data-name="Rectangle 8" width="44" height="44" fill="rgba(255,255,255,0)"/>
  <path id="Chevron" d="M10.612-9.2a1.092,1.092,0,0,1-.087.438,1.241,1.241,0,0,1-.269.383l-7.1,6.946a1.019,1.019,0,0,1-.747.31,1.054,1.054,0,0,1-.542-.141,1.088,1.088,0,0,1-.387-.383,1.012,1.012,0,0,1-.146-.533,1.065,1.065,0,0,1,.337-.775L8.069-9.2l-6.4-6.244a1.056,1.056,0,0,1-.337-.766,1,1,0,0,1,.146-.538,1.1,1.1,0,0,1,.387-.378,1.054,1.054,0,0,1,.542-.141,1.034,1.034,0,0,1,.747.3l7.1,6.946a1.241,1.241,0,0,1,.269.383A1.092,1.092,0,0,1,10.612-9.2Z" transform="translate(16.028 31.191)" fill="rgba(51,51,51,0.4)"/>
</svg>
