<svg id="Open-Photo" xmlns="http://www.w3.org/2000/svg" width="44" height="44" viewBox="0 0 44 44">
  <rect id="Rectangle_4" data-name="Rectangle 4" width="44" height="44" fill="none"/>
  <rect id="Rectangle_5" data-name="Rectangle 5" width="14" height="14" rx="4" transform="translate(15 15)" fill="#fff"/>
  <path id="Path_9" data-name="Path 9" d="M11.367,6.336a10.036,10.036,0,0,0,9.969-9.969A10.051,10.051,0,0,0,11.357-13.6,10.041,10.041,0,0,0,1.4-3.633,10.043,10.043,0,0,0,11.367,6.336Zm-4.5-5.4a1.406,1.406,0,0,1-1.6-1.573V-5.969a1.406,1.406,0,0,1,1.6-1.583H8.142a.816.816,0,0,0,.733-.332l.42-.459a1.215,1.215,0,0,1,1.036-.43h2.033a1.191,1.191,0,0,1,1.036.43l.41.459a.808.808,0,0,0,.753.332h1.3a1.409,1.409,0,0,1,1.6,1.583V-.642a1.41,1.41,0,0,1-1.6,1.573ZM11.377-.339a2.977,2.977,0,0,0,3.01-3.02,3.007,3.007,0,0,0-3.01-3.02,3.016,3.016,0,0,0-3.02,3.02A3,3,0,0,0,11.377-.339ZM15.4-4.806a.672.672,0,0,0,.674-.684.678.678,0,0,0-.674-.684.688.688,0,0,0-.694.684A.688.688,0,0,0,15.4-4.806Zm-4.036,3.6a2.15,2.15,0,0,1-2.15-2.15,2.15,2.15,0,0,1,2.15-2.15,2.156,2.156,0,0,1,2.15,2.15A2.15,2.15,0,0,1,11.367-1.209Z" transform="translate(10.633 25.633)" fill="rgba(51,51,51,0.6)"/>
</svg>
