<svg id="Pin" xmlns="http://www.w3.org/2000/svg" width="25" height="20" viewBox="0 0 44 44">
  <rect id="Rectangle_34" data-name="Rectangle 34" width="44" height="44" fill="#fff" opacity="0"/>
  <g id="Group_53" data-name="Group 53" transform="translate(-120.303 -465.797)">
    <path id="Path_23" data-name="Path 23" d="M13.311-20.961c6.725.015,11.2,4.382,11.2,10.956,0,3.158-1.3,6.589-2.75,9.505A88.288,88.288,0,0,1,15.713,9.565a2.862,2.862,0,0,1-2.4,1.541,2.844,2.844,0,0,1-2.4-1.541A85.2,85.2,0,0,1,4.7-.817C3.337-3.628,2.1-6.937,2.1-10,2.1-16.579,6.571-20.946,13.311-20.961Z" transform="translate(129 491)" fill="#589fd2"/>
    <circle id="Ellipse_4" data-name="Ellipse 4" cx="4" cy="4" r="4" transform="translate(138.303 475.408)" fill="#fff"/>
  </g>
</svg>
