<svg id="Pin" xmlns="http://www.w3.org/2000/svg" width="44" height="44" viewBox="0 0 44 44">
  <rect id="Rectangle_34" data-name="Rectangle 34" width="44" height="44" fill="#fff" opacity="0"/>
  <g id="Group_53" data-name="Group 53" transform="translate(-119.098 -462.348)">
    <path id="Path_23" data-name="Path 23" d="M12.1-20.961c6,.013,9.993,3.911,9.993,9.777A20.181,20.181,0,0,1,19.643-2.7a78.791,78.791,0,0,1-5.394,8.982A2.555,2.555,0,0,1,12.1,7.657,2.538,2.538,0,0,1,9.96,6.281,76.031,76.031,0,0,1,4.417-2.984a19.9,19.9,0,0,1-2.32-8.2C2.1-17.05,6.09-20.947,12.1-20.961Z" transform="translate(129 491)" fill="rgba(51,51,51,0.4)"/>
    <circle id="Ellipse_4" data-name="Ellipse 4" cx="4" cy="4" r="4" transform="translate(137.098 474.638)" fill="#fff"/>
  </g>
</svg>
