<svg xmlns="http://www.w3.org/2000/svg" width="48" height="32" viewBox="0 0 48 32">
  <g id="Icon_Add-Toilet_Selected" data-name="Icon / Add-Toilet / Selected" transform="translate(-730 -283)">
    <rect id="Frame" width="48" height="32" transform="translate(730 283)" fill="#fff" opacity="0"/>
    <path id="Path_37" data-name="Path 37" d="M-6.494,1.943H6.494a2.044,2.044,0,0,0,1.289-.366A1.222,1.222,0,0,0,8.252.557a4.107,4.107,0,0,0-.576-1.973A6.927,6.927,0,0,0,6.021-3.364a8.859,8.859,0,0,0-2.6-1.475A9.706,9.706,0,0,0-.01-5.41a9.676,9.676,0,0,0-3.418.571,8.859,8.859,0,0,0-2.6,1.475,6.853,6.853,0,0,0-1.65,1.948A4.133,4.133,0,0,0-8.252.557a1.222,1.222,0,0,0,.469,1.021A2.044,2.044,0,0,0-6.494,1.943ZM0-7.139a3.565,3.565,0,0,0,1.963-.576A4.258,4.258,0,0,0,3.4-9.272a4.5,4.5,0,0,0,.542-2.212A4.31,4.31,0,0,0,3.4-13.638a4.142,4.142,0,0,0-1.44-1.519A3.656,3.656,0,0,0,0-15.713a3.593,3.593,0,0,0-1.953.566,4.222,4.222,0,0,0-1.44,1.528,4.31,4.31,0,0,0-.542,2.153,4.451,4.451,0,0,0,.542,2.2A4.285,4.285,0,0,0-1.958-7.715,3.541,3.541,0,0,0,0-7.139Z" transform="translate(753.584 306.006)" fill="#589fd2"/>
  </g>
</svg>
