<svg id="Profile" xmlns="http://www.w3.org/2000/svg" width="48" height="32" viewBox="0 0 48 32">
  <rect id="Frame" width="48" height="32" fill="#fff" opacity="0"/>
  <path id="Path_36" data-name="Path 36" d="M-6.094,2.236H6.094q2.49,0,2.49-1.68a4.35,4.35,0,0,0-.6-2.09A7.277,7.277,0,0,0,6.26-3.574,9.063,9.063,0,0,0,3.55-5.112,10.083,10.083,0,0,0,.01-5.7a10.1,10.1,0,0,0-3.555.591,9.145,9.145,0,0,0-2.71,1.538A7.245,7.245,0,0,0-7.983-1.533a4.35,4.35,0,0,0-.6,2.09Q-8.584,2.236-6.094,2.236ZM-6.406.547A.405.405,0,0,1-6.655.488a.236.236,0,0,1-.073-.2A2.575,2.575,0,0,1-6.284-1a5.561,5.561,0,0,1,1.3-1.421A7.357,7.357,0,0,1-2.866-3.56,8.425,8.425,0,0,1,.01-4.014a8.352,8.352,0,0,1,2.861.454A7.445,7.445,0,0,1,4.985-2.417,5.445,5.445,0,0,1,6.289-1,2.6,2.6,0,0,1,6.729.293a.236.236,0,0,1-.073.2.385.385,0,0,1-.239.059ZM.01-6.836a3.852,3.852,0,0,0,2.148-.63A4.609,4.609,0,0,0,3.7-9.15a4.788,4.788,0,0,0,.576-2.334,4.615,4.615,0,0,0-.571-2.285A4.422,4.422,0,0,0,2.163-15.4,3.99,3.99,0,0,0,.01-16.006a3.943,3.943,0,0,0-2.153.615,4.529,4.529,0,0,0-1.548,1.646,4.592,4.592,0,0,0-.576,2.28,4.74,4.74,0,0,0,.576,2.319,4.605,4.605,0,0,0,1.548,1.68A3.876,3.876,0,0,0,.01-6.836Zm0-1.7a2.18,2.18,0,0,1-1.245-.386,2.764,2.764,0,0,1-.913-1.05,3.217,3.217,0,0,1-.342-1.494,2.945,2.945,0,0,1,.337-1.455A2.777,2.777,0,0,1-1.24-13.94a2.213,2.213,0,0,1,1.25-.376,2.233,2.233,0,0,1,1.25.371,2.706,2.706,0,0,1,.908,1.011,3.029,3.029,0,0,1,.342,1.45,3.247,3.247,0,0,1-.342,1.5,2.811,2.811,0,0,1-.908,1.06A2.154,2.154,0,0,1,.01-8.535Z" transform="translate(23.584 23.006)" fill="rgba(51,51,51,0.8)"/>
</svg>
