<svg id="icon_toggle_radio_button24px" data-name="icon / toggle / radio_button24px" xmlns="http://www.w3.org/2000/svg" width="24" height="24" viewBox="0 0 24 24">
  <rect id="Boundary" width="24" height="24" fill="none"/>
  <g id="Group_241" data-name="Group 241" transform="translate(2 2)">
    <path id="Path" d="M8,0a8,8,0,1,0,8,8A8,8,0,0,0,8,0Z" transform="translate(2 2)" fill="#589fd2"/>
    <path id="Path-2" data-name="Path" d="M6,12a6,6,0,1,1,6-6A6,6,0,0,1,6,12Z" transform="translate(4 4)" fill="#fff"/>
    <path id="Oval-path" d="M4,0A4,4,0,1,1,0,4,4,4,0,0,1,4,0Z" transform="translate(6 6)" fill="#589fd2"/>
  </g>
</svg>
