<svg id="Search" xmlns="http://www.w3.org/2000/svg" width="44" height="44" viewBox="0 0 44 44">
  <rect id="Rectangle_25" data-name="Rectangle 25" width="44" height="44" fill="#fff" opacity="0"/>
  <path id="Path_28" data-name="Path 28" d="M1.8-7.062a6.186,6.186,0,0,0,.5,2.473A6.441,6.441,0,0,0,3.664-2.562,6.387,6.387,0,0,0,5.691-1.2,6.209,6.209,0,0,0,8.156-.7,6.049,6.049,0,0,0,10.02-.988a6.548,6.548,0,0,0,1.637-.785l3.586,3.586a1.1,1.1,0,0,0,.387.254,1.249,1.249,0,0,0,.449.082A1.145,1.145,0,0,0,16.672,2a1.1,1.1,0,0,0,.406-.418,1.2,1.2,0,0,0,.148-.594,1.218,1.218,0,0,0-.082-.445A1,1,0,0,0,16.9.172L13.336-3.406a6.366,6.366,0,0,0,.871-1.7,6.044,6.044,0,0,0,.316-1.961,6.166,6.166,0,0,0-.5-2.465,6.488,6.488,0,0,0-1.371-2.031,6.355,6.355,0,0,0-2.027-1.371,6.228,6.228,0,0,0-2.473-.492,6.209,6.209,0,0,0-2.465.492,6.355,6.355,0,0,0-2.027,1.371A6.488,6.488,0,0,0,2.293-9.527,6.166,6.166,0,0,0,1.8-7.062Zm1.664,0a4.59,4.59,0,0,1,.363-1.82,4.72,4.72,0,0,1,1.012-1.5,4.72,4.72,0,0,1,1.5-1.012,4.59,4.59,0,0,1,1.82-.363,4.61,4.61,0,0,1,1.828.363,4.675,4.675,0,0,1,1.5,1.012,4.808,4.808,0,0,1,1.012,1.5,4.548,4.548,0,0,1,.367,1.82,4.567,4.567,0,0,1-.367,1.828,4.761,4.761,0,0,1-1.012,1.5,4.761,4.761,0,0,1-1.5,1.012,4.567,4.567,0,0,1-1.828.367,4.548,4.548,0,0,1-1.82-.367,4.808,4.808,0,0,1-1.5-1.012,4.675,4.675,0,0,1-1.012-1.5A4.61,4.61,0,0,1,3.461-7.062Z" transform="translate(12.488 27.637)" fill="#333"/>
</svg>
