<svg id="Star-HalfFill" xmlns="http://www.w3.org/2000/svg" width="10" height="9.557" viewBox="0 0 10 9.557">
  <path id="Icon_Star-HalfFill" data-name="Icon / Star-HalfFill" d="M3.313-3.2a.377.377,0,0,0,.315.074,1,1,0,0,0,.383-.182L6.394-5.059,8.78-3.307a1,1,0,0,0,.383.182A.377.377,0,0,0,9.478-3.2a.421.421,0,0,0,.169-.279A.857.857,0,0,0,9.591-3.9L8.65-6.7l2.4-1.729a.9.9,0,0,0,.293-.306.408.408,0,0,0,.027-.324.412.412,0,0,0-.212-.243.886.886,0,0,0-.419-.077l-2.95.018-.9-2.815a.949.949,0,0,0-.2-.374.4.4,0,0,0-.3-.126.4.4,0,0,0-.295.126.949.949,0,0,0-.2.374L5-9.359l-2.95-.018a.886.886,0,0,0-.419.077.412.412,0,0,0-.212.243.408.408,0,0,0,.027.324.9.9,0,0,0,.293.306L4.142-6.7,3.2-3.9a.857.857,0,0,0-.056.419A.421.421,0,0,0,3.313-3.2Zm3.08-2.634V-11.58q.018,0,.027.036L7.2-8.936a.347.347,0,0,0,.131.2.379.379,0,0,0,.23.056l2.724-.05q.036,0,.041.014t-.023.036L8.064-7.13a.419.419,0,0,0-.117.119.28.28,0,0,0-.043.142.432.432,0,0,0,.029.162l.9,2.576a.085.085,0,0,1,0,.041q-.009.014-.041-.009L6.623-5.752A.323.323,0,0,0,6.394-5.833Z" transform="translate(-1.396 12.674)" fill="#589fd2"/>
</svg>
