<svg id="Star-HalfFilled" xmlns="http://www.w3.org/2000/svg" xmlns:xlink="http://www.w3.org/1999/xlink" width="current" height="current" viewBox="0 0 10 9.56">
  <defs>
    <clipPath id="clip-path">
      <rect id="Rectangle_55" data-name="Rectangle 55" width="5" height="9.56" transform="translate(627 104)" fill="#fff" stroke="#707070" stroke-width="1"/>
    </clipPath>
  </defs>
  <path id="Path_45" data-name="Path 45" d="M9.478-3.2a.377.377,0,0,1-.315.074,1,1,0,0,1-.383-.182L6.4-5.059,4.011-3.307a1,1,0,0,1-.383.182A.377.377,0,0,1,3.313-3.2a.421.421,0,0,1-.169-.279A.857.857,0,0,1,3.2-3.9l.941-2.8-2.4-1.729a.9.9,0,0,1-.293-.306.408.408,0,0,1-.027-.324A.412.412,0,0,1,1.629-9.3a.886.886,0,0,1,.419-.077L5-9.359l.9-2.815a.949.949,0,0,1,.2-.374.4.4,0,0,1,.3-.126.4.4,0,0,1,.295.126.949.949,0,0,1,.2.374l.9,2.815,2.95-.018a.886.886,0,0,1,.419.077.412.412,0,0,1,.212.243.408.408,0,0,1-.027.324.9.9,0,0,1-.293.306L8.65-6.7l.941,2.8a.857.857,0,0,1,.056.419A.421.421,0,0,1,9.478-3.2ZM6.4-5.833V-11.58q-.018,0-.027.036L5.588-8.936a.347.347,0,0,1-.131.2.379.379,0,0,1-.23.056L2.5-8.729q-.036,0-.041.014t.023.036L4.727-7.13a.419.419,0,0,1,.117.119.28.28,0,0,1,.043.142.432.432,0,0,1-.029.162l-.9,2.576a.085.085,0,0,0,0,.041Q3.971-4.077,4-4.1L6.168-5.752A.323.323,0,0,1,6.4-5.833Z" transform="translate(-1.396 12.674)" fill="#d6d6d6"/>
  <rect id="Rectangle_56" data-name="Rectangle 56" width="1" height="6" rx="0.5" transform="translate(4.5 1)" fill="#d6d6d6"/>
  <g id="Mask_Group_1" data-name="Mask Group 1" transform="translate(-627 -104)" clip-path="url(#clip-path)">
    <path id="Path_44" data-name="Path 44" d="M3.313-3.2a.377.377,0,0,0,.315.074,1,1,0,0,0,.383-.182L6.394-5.059,8.78-3.307a1,1,0,0,0,.383.182A.377.377,0,0,0,9.478-3.2a.421.421,0,0,0,.169-.279A.857.857,0,0,0,9.591-3.9L8.65-6.7l2.4-1.729a.9.9,0,0,0,.293-.306.408.408,0,0,0,.027-.324.412.412,0,0,0-.212-.243.886.886,0,0,0-.419-.077l-2.95.018-.9-2.815a.949.949,0,0,0-.2-.374.4.4,0,0,0-.3-.126.4.4,0,0,0-.295.126.949.949,0,0,0-.2.374L5-9.359l-2.95-.018a.886.886,0,0,0-.419.077.412.412,0,0,0-.212.243.408.408,0,0,0,.027.324.9.9,0,0,0,.293.306L4.142-6.7,3.2-3.9a.857.857,0,0,0-.056.419A.421.421,0,0,0,3.313-3.2Zm3.08-2.634V-11.58q.018,0,.027.036L7.2-8.936a.347.347,0,0,0,.131.2.379.379,0,0,0,.23.056l2.724-.05q.036,0,.041.014t-.023.036L8.064-7.13a.419.419,0,0,0-.117.119.28.28,0,0,0-.043.142.432.432,0,0,0,.029.162l.9,2.576a.085.085,0,0,1,0,.041q-.009.014-.041-.009L6.623-5.752A.323.323,0,0,0,6.394-5.833Z" transform="translate(625.604 116.674)" fill="#589fd2"/>
  </g>
</svg>
