<svg id="Star-Empty" xmlns="http://www.w3.org/2000/svg" width="10" height="9.557" viewBox="0 0 10 9.557">
  <g id="Icon_Star-Empty" data-name="Icon / Star-Empty" fill="#fff" stroke-linecap="round">
    <path d="M 7.848148345947266 9.206974983215332 C 7.844678401947021 9.206974983215332 7.840378284454346 9.206555366516113 7.835738658905029 9.205775260925293 C 7.787638664245605 9.196555137634277 7.708388328552246 9.168105125427246 7.588808536529541 9.082125663757324 L 5.207008361816406 7.334375381469727 L 4.999948501586914 7.182435512542725 L 4.792888641357422 7.334375381469727 L 2.40833854675293 9.084125518798828 C 2.291508436203003 9.168105125427246 2.212258577346802 9.196555137634277 2.166828393936157 9.20528507232666 C 2.159578561782837 9.206685066223145 2.154638528823853 9.206974983215332 2.151768445968628 9.206974983215332 C 2.14780855178833 9.206835746765137 2.143078565597534 9.206645011901855 2.130378484725952 9.19687557220459 L 2.127628564834595 9.194755554199219 L 2.124828577041626 9.192685127258301 C 2.110848426818848 9.182374954223633 2.099688529968262 9.17171573638916 2.093788385391235 9.136895179748535 C 2.092048406600952 9.126595497131348 2.091138601303101 9.114825248718262 2.091088533401489 9.10191535949707 C 2.090938568115234 9.063845634460449 2.098408460617065 8.996564865112305 2.134848594665527 8.892415046691895 L 3.077668428421021 6.086575508117676 L 3.159948587417603 5.841705322265625 L 2.950208425521851 5.690915107727051 L 0.5454084873199463 3.962015390396118 C 0.4196085035800934 3.873845338821411 0.3754684925079346 3.810585260391235 0.3600384891033173 3.780495405197144 C 0.3500584959983826 3.761035203933716 0.350008487701416 3.751175403594971 0.3499985039234161 3.747925281524658 C 0.3499585092067719 3.741555213928223 0.3514584898948669 3.733595371246338 0.3544585108757019 3.724385261535645 C 0.3600485026836395 3.707645416259766 0.3672285079956055 3.696855306625366 0.3928084969520569 3.683735370635986 C 0.3958784937858582 3.68215537071228 0.399108499288559 3.680735349655151 0.4023685157299042 3.6793053150177 C 0.4342184960842133 3.665245294570923 0.4950185120105743 3.648005247116089 0.6035885214805603 3.645835399627686 L 0.626648485660553 3.645605325698853 L 0.6461784839630127 3.645755290985107 L 3.599658489227295 3.663785219192505 L 3.857148408889771 3.665355205535889 L 3.935288429260254 3.420015335083008 L 4.831688404083252 0.605715274810791 C 4.879658699035645 0.4594652950763702 4.927278518676758 0.3964453041553497 4.951318264007568 0.3721452951431274 C 4.971086502075195 0.3519502282142639 4.980091571807861 0.3501364290714264 4.995227813720703 0.3500046730041504 L 4.995258331298828 0.3500052988529205 L 4.999948501586914 0.3500252962112427 L 5.003448486328125 0.3500252962112427 L 5.004656314849854 0.3500043749809265 C 5.019798278808594 0.3501318991184235 5.028738498687744 0.3518764078617096 5.047268390655518 0.3708052933216095 C 5.071908473968506 0.3959952890872955 5.120548725128174 0.4604153037071228 5.169118404388428 0.6085352897644043 L 6.064608573913574 3.420015335083008 L 6.142748355865479 3.665355205535889 L 6.400238513946533 3.663785219192505 L 9.349538803100586 3.645785331726074 L 9.372478485107422 3.645605325698853 C 9.395418167114258 3.645605325698853 9.417538642883301 3.646245241165161 9.438808441162109 3.647585391998291 C 9.525348663330078 3.653035402297974 9.574648857116699 3.668575286865234 9.600748062133789 3.680645227432251 L 9.607098579406738 3.683735370635986 C 9.632668495178223 3.696855306625366 9.639848709106445 3.707645416259766 9.646258354187012 3.726875305175781 C 9.648438453674316 3.733595371246338 9.649928092956543 3.74150538444519 9.649888038635254 3.747945308685303 C 9.64987850189209 3.751215219497681 9.649828910827637 3.76105523109436 9.639858245849609 3.780495405197144 C 9.624618530273438 3.810205221176147 9.580618858337402 3.873065233230591 9.457098960876465 3.960155248641968 L 7.049688339233398 5.690915107727051 L 6.839948654174805 5.841705322265625 L 6.922228336334229 6.086575508117676 L 7.863628387451172 8.888285636901855 C 7.901488304138184 8.99654483795166 7.908958435058594 9.063835144042969 7.908808708190918 9.101955413818359 C 7.908758640289307 9.114825248718262 7.907848358154297 9.126595497131348 7.906108379364014 9.136895179748535 C 7.900288581848145 9.171265602111816 7.8897385597229 9.181304931640625 7.875468730926514 9.19173526763916 L 7.87134838104248 9.194745063781738 L 7.867318630218506 9.197875022888184 C 7.860888481140137 9.202875137329102 7.855168342590332 9.206174850463867 7.852018356323242 9.206705093383789 L 7.848148345947266 9.206974983215332 Z" stroke="none"/>
    <path d="M 7.35634183883667 8.477409362792969 L 6.425898551940918 5.708315372467041 L 8.80327320098877 3.99913215637207 L 5.88740873336792 4.01692533493042 L 4.999948501586914 1.230694532394409 L 4.112488269805908 4.01692533493042 L 1.196630239486694 3.999136686325073 L 3.57399845123291 5.708315372467041 L 2.643554925918579 8.477409362792969 L 4.999948501586914 6.748315334320068 L 7.35634183883667 8.477409362792969 M 7.84799861907959 9.556975364685059 C 7.824958324432373 9.556964874267578 7.801388263702393 9.554935455322266 7.77733850479126 9.550865173339844 C 7.773898601531982 9.550285339355469 7.770458698272705 9.549665451049805 7.766998291015625 9.548995018005371 C 7.649998664855957 9.526505470275879 7.522198677062988 9.465305328369141 7.384498596191406 9.366305351257324 L 4.999948501586914 7.616555213928223 L 2.615398406982422 9.366305351257324 C 2.477698564529419 9.465305328369141 2.34989857673645 9.526505470275879 2.232898473739624 9.548995018005371 C 2.199664115905762 9.555390357971191 2.167371988296509 9.557895660400391 2.136008501052856 9.556645393371582 C 2.056998491287231 9.55340576171875 1.984008550643921 9.525845527648926 1.916998505592346 9.474305152893066 C 1.824298501014709 9.405895233154297 1.768498539924622 9.312305450439453 1.748698472976685 9.195295333862305 C 1.743748545646667 9.166045188903809 1.741218447685242 9.135395050048828 1.741088509559631 9.103335380554199 C 1.740708470344543 9.007144927978516 1.761978507041931 8.89830493927002 1.804498553276062 8.77680492401123 L 2.745898485183716 5.975095272064209 L 0.3410984873771667 4.246195316314697 C 0.1997984945774078 4.147195339202881 0.1025985032320023 4.045505523681641 0.04859850183129311 3.940195322036743 C 0.01653850078582764 3.877675294876099 0.0003385015879757702 3.814205408096313 -1.498413098488527e-06 3.749775409698486 C -0.0002214984124293551 3.705695390701294 0.006978501565754414 3.66117525100708 0.02159850113093853 3.616195201873779 C 0.05759850144386292 3.508195400238037 0.1277984976768494 3.426295280456543 0.2330985069274902 3.372295379638672 C 0.2421085089445114 3.367675304412842 0.2514584958553314 3.363335371017456 0.2609685063362122 3.359135389328003 C 0.3506185114383698 3.319555282592773 0.4624485075473785 3.298585414886475 0.5965985059738159 3.295905351638794 C 0.6145235896110535 3.29554271697998 0.6328592300415039 3.295505285263062 0.6515985131263733 3.295795202255249 L 3.601798534393311 3.313795328140259 L 4.498198509216309 0.4994952976703644 C 4.55219841003418 0.3347952961921692 4.619698524475098 0.2096952944993973 4.702498435974121 0.1259952932596207 C 4.785841941833496 0.04084013029932976 4.884884357452393 2.529817174945492e-05 4.999948501586914 2.529815719753969e-05 C 5.11500072479248 2.529825542296749e-05 5.21405553817749 0.04084013402462006 5.297398567199707 0.1259952932596207 C 5.379298686981201 0.2096952944993973 5.447698593139648 0.3347952961921692 5.50169849395752 0.4994952976703644 L 6.398098468780518 3.313795328140259 L 9.34739875793457 3.295795202255249 C 9.386970520019531 3.295185327529907 9.424783706665039 3.29601263999939 9.460768699645996 3.298275232315063 C 9.574058532714844 3.305415391921997 9.669578552246094 3.326865196228027 9.747648239135742 3.36296534538269 C 9.754148483276367 3.365975379943848 9.760538101196289 3.369085311889648 9.766798973083496 3.372295379638672 C 9.872098922729492 3.426295280456543 9.942298889160156 3.508195400238037 9.978298187255859 3.616195201873779 C 9.992928504943848 3.66117525100708 10.00011825561523 3.705695390701294 9.99988842010498 3.749775409698486 C 9.999558448791504 3.814205408096313 9.983358383178711 3.877675294876099 9.951298713684082 3.940195322036743 C 9.897298812866211 4.045505523681641 9.799198150634766 4.147195339202881 9.658798217773438 4.246195316314697 L 7.253998279571533 5.975095272064209 L 8.195398330688477 8.77680492401123 C 8.23792839050293 8.89830493927002 8.259188652038574 9.007144927978516 8.258808135986328 9.103335380554199 C 8.258678436279297 9.135395050048828 8.256148338317871 9.166045188903809 8.251198768615723 9.195295333862305 C 8.231398582458496 9.312305450439453 8.17559814453125 9.405895233154297 8.081998825073242 9.474305152893066 C 8.028908729553223 9.515535354614258 7.971688270568848 9.541415214538574 7.91049861907959 9.551785469055176 C 7.890098571777344 9.555234909057617 7.869268417358398 9.556964874267578 7.84799861907959 9.556975364685059 Z" stroke="none" fill="#589fd2"/>
  </g>
</svg>
