<svg id="Star-Fill" xmlns="http://www.w3.org/2000/svg" width="current" height="current" viewBox="0 0 10 9.557">
  <path id="Union_1" data-name="Union 1" d="M7.848,9.557h-.01a.428.428,0,0,1-.071-.008,1,1,0,0,1-.383-.182L5,7.617,2.616,9.366a1,1,0,0,1-.383.182.443.443,0,0,1-.061.008h-.02a.377.377,0,0,1-.055,0,.36.36,0,0,1-.067-.017L2.012,9.53l-.029-.013a.42.42,0,0,1-.058-.037l-.007-.005A.421.421,0,0,1,1.749,9.2.572.572,0,0,1,1.741,9.1a.983.983,0,0,1,.064-.327l.941-2.8L.341,4.246A.9.9,0,0,1,.049,3.94.417.417,0,0,1,0,3.75a.424.424,0,0,1,.022-.134.412.412,0,0,1,.211-.244A.837.837,0,0,1,.6,3.3h.05L3.6,3.314,4.5.5A.955.955,0,0,1,4.7.126.4.4,0,0,1,5,0H5a.4.4,0,0,1,.3.126A.949.949,0,0,1,5.5.5l.9,2.814L9.348,3.3H9.4a1.015,1.015,0,0,1,.255.033.6.6,0,0,1,.114.044.412.412,0,0,1,.212.244A.42.42,0,0,1,10,3.75a.412.412,0,0,1-.049.19.9.9,0,0,1-.292.307l-2.4,1.729.941,2.8a.99.99,0,0,1,.064.327.572.572,0,0,1-.008.092.42.42,0,0,1-.168.279.427.427,0,0,1-.062.04l-.036.017a.381.381,0,0,1-.044.015.363.363,0,0,1-.053.01l-.039,0ZM5,1.111H5V1.095H5Z" transform="translate(0)" fill="#589fd2"/>
</svg>
